<svg xmlns="http://www.w3.org/2000/svg" xmlns:xlink="http://www.w3.org/1999/xlink" viewBox="0 0 249.38 78"><defs><style>.cls-1{fill:none;}.cls-2{clip-path:url(#clip-path);}.cls-3{opacity:0.79;}.cls-4{clip-path:url(#clip-path-4);}.cls-5{clip-path:url(#clip-path-5);}.cls-6{fill:#79769d;}.cls-7{fill:#63607f;}.cls-8{fill:#3e3e3e;}.cls-9{fill:#d2c8ac;}.cls-10{fill:#60959e;}.cls-11{opacity:0.83;}.cls-12{clip-path:url(#clip-path-6);}.cls-13{font-size:18.72px;fill:#fff;font-family:Raleway, Raleway;letter-spacing:0.12em;}.cls-14{letter-spacing:0.12em;}.cls-15{letter-spacing:0.04em;}.cls-16{letter-spacing:0.11em;}.cls-17{letter-spacing:0em;}</style><clipPath id="clip-path" transform="translate(0 0)"><rect class="cls-1" width="251" height="78"/></clipPath><clipPath id="clip-path-4" transform="translate(0 0)"><rect class="cls-1" y="-0.17" width="77.29" height="78.34"/></clipPath><clipPath id="clip-path-5" transform="translate(0 0)"><rect class="cls-1" width="77.29" height="78"/></clipPath><clipPath id="clip-path-6" transform="translate(0 0)"><rect class="cls-1" x="19.2" y="31.06" width="231.8" height="20.2"/></clipPath></defs><title>Иллюстрация 1</title><g id="Слой_2" data-name="Слой 2"><g id="Слой_1-2" data-name="Слой 1"><g id="Иллюстрация_1" data-name="Иллюстрация 1"><g class="cls-2"><g class="cls-2"><g class="cls-2"><g class="cls-3"><g class="cls-4"><g class="cls-5"><path class="cls-6" d="M38.64,0A39,39,0,1,1,0,39,38.82,38.82,0,0,1,38.64,0" transform="translate(0 0)"/><path class="cls-7" d="M59.42,25.54,55,27.4l-41,25L39.53,78A38.77,38.77,0,0,0,77.1,42.84Z" transform="translate(0 0)"/><path class="cls-8" d="M59.11,25.29H18.22a.5.5,0,0,0-.49.52V49.34H59.62V25.79a.5.5,0,0,0-.51-.5" transform="translate(0 0)"/><path class="cls-9" d="M62.7,49.18H13.94a.65.65,0,0,0-.68.77l.34,2a1,1,0,0,0,.94.77H62.06a1,1,0,0,0,.94-.77l.34-2a.61.61,0,0,0-.65-.77" transform="translate(0 0)"/><rect class="cls-10" x="19.54" y="26.7" width="38.26" height="22.5"/></g></g></g><g class="cls-11"><g class="cls-12"><text class="cls-13" transform="translate(19.2 47.06) scale(0.98 1)">ALE<tspan class="cls-14" x="41.92" y="0">X</tspan><tspan x="55.94" y="0">ANDER</tspan><tspan class="cls-14" x="131.54" y="0"> </tspan><tspan x="138.54" y="0">Z</tspan><tspan class="cls-15" x="152.45" y="0">A</tspan><tspan x="166" y="0">Y</tspan><tspan class="cls-16" x="180.1" y="0">T</tspan><tspan x="193.64" y="0">SE</tspan><tspan class="cls-17" x="221.03" y="0">V</tspan></text></g></g></g></g></g></g></g></g></svg>