<?xml version="1.0" encoding="utf-8"?>
<!-- Generator: Adobe Illustrator 21.0.0, SVG Export Plug-In . SVG Version: 6.00 Build 0)  -->
<svg version="1.1" id="Слой_2" xmlns="http://www.w3.org/2000/svg" xmlns:xlink="http://www.w3.org/1999/xlink" x="0px" y="0px"
	 viewBox="0 0 7833 5656" style="enable-background:new 0 0 7833 5656;" xml:space="preserve">
<style type="text/css">
	.st0{fill:none;}
	.st1{fill:#9D9499;}
	.st2{fill:url(#Новый_узор_4);}
</style>
<pattern  x="3409" y="2129" width="1245.1" height="2504.6" patternUnits="userSpaceOnUse" id="Новый_узор_4" viewBox="0 -2504.6 1245.1 2504.6" style="overflow:visible;">
	<g>
		<rect y="-2504.6" class="st0" width="1245.1" height="2504.6"/>
		<g>
			<path class="st1" d="M1108.9-191c-1.9-0.2-3.4-0.8-4.9-0.7c-3.5,0.3-7,1.1-10.5,1.4c-7.4,0.5-14,3.1-20.3,6.3
				c-5.1,2.6-6.2,2.4-9-2.4c-4.2-7-6.4-14.6-7.1-22.5c-0.2-1.9-0.1-3.8,0-5.7c0.2-2.3,1.1-4.6,0.6-6.7c-0.4-1.7-2.2-3.9-3.8-4.3
				c-1.2-0.3-4,1.6-4.6,3.1c-1.2,2.8-1.7,6-1.7,9c0,3.6,1.1,7.3,1.5,10.9c0.8,7.2,3.3,13.8,7.6,19.7c2.9,4,3.4,7.5,0.4,11.4
				c-0.3,0.4-0.6,0.8-0.9,1.1c-5.6,7.4-10.1,15.1-12.1,24.4c-2.7,12.6-1.3,24.3,4.9,35.3c3.3,6,8.3,11.2,12.8,16.6
				c6.8,8.1,13.8,16,20.8,23.9c4.7,5.3,10.1,10.1,14.2,15.7c5.6,7.8,13.5,12.8,21.8,17.3c9.6,5.3,20.3,5.5,31.1,5.4
				c9.9-0.1,18.9-2.1,27.4-6.7c7.8-4.2,14.4-9.8,19.1-16.6c7.7-11.2,11.3-23.8,10.1-37.3c-0.7-8.1-3-15.8-7.7-22.7
				c-3.4-5-7.2-9.7-11.2-14.2c-8.6-9.7-17.5-19.3-26.2-28.9c-3.4-3.7-6.6-7.6-10-11.4c-6.7-7.3-14.5-13.5-24.3-16.8
				C1121.2-188.3,1115.2-189.5,1108.9-191 M1145.2-147.1c1.2-1.3,1.9-2.2,2.6-3.2c2.4-3.3,5-3.8,7.9-1c4.1,4,8,8.2,11.9,12.5
				c4.7,5.2,9.2,10.6,13.9,15.8c7.4,8.2,14,17.1,15.7,27.7c1.4,9,1,18.3-3.3,27.2c-4.9,10.2-12.3,18.3-22.6,23.7
				c-4.3,2.2-9.5,3.1-14.4,4.3c-3.2,0.8-6.5,1.5-9.7,1.5c-10-0.2-19.7-2.5-28.1-7.5c-5.7-3.5-10.5-8.5-15.2-13.2
				c-5.4-5.5-10.2-11.4-15.3-17.1c-4.1-4.6-8.3-9.1-12.4-13.8c-1.6-1.9-0.8-3.5,1.3-4.8c12.4-7.8,25.3-14.9,36.9-23.6
				c9.5-7.1,17.4-15.9,26.1-23.9C1142-144.1,1143.6-145.6,1145.2-147.1 M1139.3-153.4c-4.9,5.3-9.3,10.4-14,15.2
				c-2.5,2.5-5.5,4.8-8.6,6.5c-3.4,1.9-9.4-1.7-9.9-6.5c-0.9-8.6-5.2-15.4-10.6-22c-2.5-3.1-11.5-7.3-14.6-6.4
				c-7.7,2.2-10.1,7.9-6.5,15.8c2.7,5.9,7.9,10,12.9,13.9c2.8,2.2,7.7,2.1,10.8,4.1c2.8,1.8,4.8,4.8,6.7,7.6c0.4,0.6-1,2.9-2.2,3.7
				c-5.6,4-11.4,7.8-17.2,11.5c-4.1,2.6-8.4,5-12.6,7.4c-3.3,1.9-7.6,0.7-10-2.3c-6.2-7.7-9.8-16.6-11.8-25.9
				c-0.8-3.8,0.1-8,0.7-11.9c1.6-10.8,7.3-19.8,15.5-27.4c6.7-6.2,15-9.9,24.1-12c20.2-4.5,36.4,2.6,50.2,15.8
				c3.6,3.4,3.5,5.3,0.1,9.2C1141.3-155.8,1140.3-154.6,1139.3-153.4 M1083.6-153.4c-0.6-0.9-0.2-2.2-0.3-3.4
				c1.3,0.1,3.3-0.4,3.9,0.3c3.1,3.3,6,6.8,8.7,10.3c0.3,0.4,0.1,1.9-0.4,2.1c-0.7,0.4-2.1,0.5-2.6,0.1c-1.8-1.4-3.4-3.1-5.1-4.6
				C1086.1-150.4,1084.6-151.8,1083.6-153.4z"/>
			<path class="st1" d="M922.9-483.1c1.8,2.4,1.9,4.6-0.2,6.5c-1.8,1.7-3.8,2.4-6.4,1.1c-6-2.9-12-5.8-18.2-8.4
				c-11.3-4.8-23-8.3-35.3-10.2c-10.4-1.7-20.8-2.5-31.3-2.2c-12,0.4-23.6,2.5-35.1,5.2c-12.5,3-23.9,8.4-35.2,14.1
				c-1.2,0.6-2.5,0.9-3.7,1.5c-3.2,1.8-6.2,0.6-7.5-1.9c-1.3-2.5-0.4-5.3,2.8-7.1c12.6-7.3,25.8-13,40.2-16.2
				c9.2-2,18.5-3.5,27.9-4.4c8.9-0.9,17.9-1.2,26.7-0.8c16.7,0.7,33.1,3.8,48.6,9.8c8.1,3.1,15.7,7.1,23.5,10.7
				C920.8-484.9,921.7-484,922.9-483.1z"/>
			<path class="st1" d="M810.3-457.7c11.5-2.2,22.8-3.9,34.1-2.9c17.4,1.5,34.1,5.4,49.1,14.1c2.4,1.3,3.9,6.2,2.9,8.5
				c-0.9,2-4.3,2.5-7.6,1.1c-7.3-3-14.5-6.3-22-8.8c-5.7-1.9-11.8-2.9-17.8-3.7c-5.4-0.7-10.9-0.9-16.4-0.8
				c-11.3,0.2-22.1,2.7-32.5,6.7c-4.9,1.9-9.6,4-14.4,6.2c-4.3,1.9-6.8,1.8-8.1-0.6c-1.8-3.3-0.5-6.4,3.4-8.6
				c8.8-5.1,18.4-8.3,28.4-10.6C809.5-457.2,809.7-457.5,810.3-457.7z"/>
			<path class="st1" d="M834.2-373.7c-9.2,2.9-13.7,6-12.9,16.4c0.5,6.7,2.7,10,9.5,12.9c6.5,2.8,14,0.8,19.6-5.4
				c3.1-3.4,4.1-10.6,1.2-15.3C847.9-371,842.7-374.9,834.2-373.7 M841.3-359.5c0.3,2.3,0.6,5-2.7,5.9c-2.8,0.7-4.9-0.6-6-2.9
				c-1.4-2.9-0.9-5.5,2.7-6.7C839.1-363.5,841-362.2,841.3-359.5z"/>
			<path class="st1" d="M864.5-397.5c-5.1-1.7-9.7-3.6-14.4-5.2c-13.1-4.4-25.3-1.4-37.3,4c-0.2,0.1-0.4,0.4-0.6,0.5
				c-4.7,2.2-6.6,2-8.3-0.9c-2-3.5-1.2-6.9,2.9-8.7c6.8-3,13.9-5.8,21.6-6c6.2-0.2,12.4-0.5,18.5,0.1c7.8,0.8,15.4,2.9,21.6,7.8
				c1.4,1.1,2.8,3.3,2.5,4.8C870.5-398.4,867.9-397.3,864.5-397.5z"/>
		</g>
		<g>
			<path class="st1" d="M259.5-500c-60.1,0-120.1,0-180,0.2c-0.5,0.6-1,1.2-1.5,1.3c-9.4,1.4-12.9,9.6-12.9,16.5
				c0,40.6-0.3,81.2,0.2,121.9c0.1,11.2,5.3,17.3,17.9,17.2c22.4-0.2,44.9-0.1,67.4-0.1c34.9,0,69.9,0.1,104.8-0.1
				c7.3,0,13.6-3.2,14.8-10.1c0.8-4.5,2.2-9.1,2.2-13.6c-0.1-38.2-0.4-76.3-0.7-114.5c0-6-2-11.4-7.3-15.4
				C262.9-497.8,261.3-498.9,259.5-500 M246.2-491.7c3.3,0,6.6,1.2,9.8,2c5.2,1.4,6.9,5.2,6.9,9.8c0,39.2,0.1,78.3-0.1,117.5
				c0,7.6-3.7,11-11.8,11c-55.3,0.2-110.6,0.1-165.9,0.1c-5.3,0-8.6-2.4-9.6-7.3c-0.8-4-1.6-8-1.6-12c-0.1-35.1,0.1-70.1-0.1-105.2
				c-0.1-12.2,5.4-16.3,17.2-16C143.3-491.8,194.7-491.8,246.2-491.7z"/>
			<path class="st1" d="M434.1-219.7c-5.7,0.7-7.9,4.6-9.2,8.7c-1.9,5.8-5.2,11.4-3.3,17.8c1.4,4.7,3.3,9.1,9.3,10.4
				c3.2,0.7,4.6,2.8,4.2,6c-0.7,6-1,12-1.7,18c-0.9,7.7-2.3,15.3-3.1,22.9c-1.2,11.5-2.1,23-3.2,34.4c-0.4,4.6-0.6,9.3-1.7,13.9
				c-2,8.9,0.8,14.1,10.1,16.8c3.5,1,7.2,1.9,10.8,2.6c7.7,1.6,15.3,3.3,23,4.8c8.6,1.7,17.1,3.3,25.7,5c7.3,1.4,14.5,3.5,22.1,3.3
				c4.5-0.1,7.4-1.6,8.9-5.3c4.6-11.6,9.2-23.2,13.5-34.9c6.8-18.2,13.5-36.4,19.8-54.8c1.3-3.8,3.3-4.8,7-4.8
				c2.3,0,5.1,0.3,6.7-0.8c4.5-3,8.4-6.7,9.5-12.1c0.4-1.8,0.5-3.8,1.2-5.5c2.7-7,0.7-12.8-4.7-18.1c-1.7-1.7-3.1-4.1-3.5-6.4
				c-0.9-5.3-1.2-10.7-1.8-16.1c-0.1-0.5-0.6-1-0.8-1.6c-1.9-5.9-7.7-6.5-12.8-7.7c-9.3-2.2-18.7-3.9-28.1-5.8
				c-11.1-2.3-22.1-4.6-33.2-6.9c-10.5-2.2-20.9-4.3-31.4-6.5c-5.4-1.1-11.1-2.2-15.3,2.1c-3.3,3.3-5.8,7.3-8.4,11.2
				C441.4-225.2,439-221.5,434.1-219.7 M481.7-94.6c-8.9-1.7-17-3.5-25.2-5.2c-5-1-10.1-1.7-15-3.1c-3.1-0.8-2.7-3.8-2.5-6.1
				c0.4-3.9,1.1-7.8,1.5-11.6c1.1-10,2.1-20,3.2-30c0.6-5.4,3.1-7,8.8-5.7c12.5,2.7,24.9,5.6,37.4,8.1c15.2,3.1,30.6,6,45.8,9
				c4.5,0.9,5.8,2.9,4.4,6.7c-4.5,12.4-9,24.7-13.6,37.1c-0.6,1.7-1.2,3.5-2,5.2c-1.3,3-4.1,4-8.5,3c-9.1-2-18.2-4-27.2-5.9
				C486.6-93.6,484.2-94.1,481.7-94.6 M520.8-175.6c-6.5-1.2-12.2-2.5-17.9-3.7c-9-2-17.9-4.1-26.9-5.9c-12.6-2.6-25.2-5-37.7-7.5
				c-4.2-0.8-5.2-2.3-4.1-6.4c0.6-2.3,0.8-4.7,1.7-6.8c0.7-1.6,1.2-3.4,4.6-2.6c14.5,3.3,29.2,6.1,43.8,9.1
				c10.6,2.2,21.1,4.5,31.7,6.7c12.8,2.6,25.7,5,38.5,7.5c3.8,0.7,7.6,1.4,11.4,2.2c6.3,1.4,7.4,3.5,5.2,10.2
				c-2.2,7-2.6,6.9-9.8,5.4c-12.4-2.5-24.9-5-37.3-7.5C523-175.1,521.9-175.4,520.8-175.6 M465-231.4c8.9,1.6,16.9,3.1,25,4.7
				c11.8,2.4,23.7,4.8,35.5,7.2c6,1.2,11.9,2.5,17.8,3.9c4.7,1.1,9.3,2.3,13.9,3.6c5.7,1.6,8.8,9.4,6.4,14.5c-1.4,3-3.6,1.9-5.5,1.5
				c-9.7-1.8-19.3-3.7-28.9-5.7c-8.8-1.8-17.5-3.7-26.2-5.5c-8.3-1.7-16.6-3.2-24.9-4.9c-7.1-1.5-14.2-3.2-21.4-4.8
				c-0.9-0.2-2,0-2.6-0.4c-0.9-0.7-2.2-2.2-2-2.6c2.2-3.6,4.6-7.2,7.3-10.5C460.6-231.9,462.7-233.2,465-231.4 M510.4-149.6
				c-10.1-2.5-19.8-4.7-29.5-6.6c-9.6-1.9-19.2-3.6-28.8-5.2c-4.2-0.7-6-2.5-5.9-6.5c0.1-2.4,0.5-4.8,0.6-7.2c0.3-3.7,3.2-4,5.9-3.4
				c12.4,2.6,24.7,5.5,37.1,8.1c14.3,2.9,28.7,5.4,43,8.3c4.4,0.9,8.8,2.3,13.1,3.8c1.1,0.4,2.5,2.2,2.3,3.2c-0.6,3-1.5,6.1-3,8.8
				c-1.4,2.4-3.6,3.1-7.2,2.2C528.9-146.5,519.6-147.9,510.4-149.6 M505.1-67.1c-12.9-2.7-25.7-5.5-38.6-8.2
				c-8.5-1.8-17.1-3.3-25.5-5.4c-1.7-0.4-4-2.9-4-4.6c-0.1-3.3,0.8-6.8,1.8-10c0.4-1.3,1.3-2.5,4.1-1.8c9.9,2.5,20,4.1,30,6.1
				c11.1,2.3,22.1,4.6,33.2,6.9c2.3,0.5,4.7,0.8,7,1.3c6.9,1.4,8.3,3.9,5.9,10C515.8-65.6,514.4-65.1,505.1-67.1z"/>
			<path class="st1" d="M120.4-411.3c-3.8,2.3-7.3,4.5-11,6.5c-2.5,1.3-5.5,0.5-6.3-1.7c-0.5-1.5,0.9-4.5,2.5-5.7
				c8.6-6.4,17.5-12.5,26.4-18.6c3.4-2.3,3.9-3.4,0.7-5.8c-7.2-5.4-14.7-10.6-22-15.8c-2-1.5-4.1-2.9-6-4.5
				c-2.3-1.9-3.1-4.7-0.7-6.4c1.5-1.1,5.2-1.3,6.7-0.3c6.7,4.2,13.1,8.9,19.6,13.5c4.9,3.4,9.6,7,14.6,10.3
				c5.3,3.5,5.8,7.2,0.8,10.9C137.4-422.9,128.9-417.3,120.4-411.3z"/>
			<path class="st1" d="M164.8-385.5c-2.5-0.2-4.7-0.4-6.8-0.8c-2.7-0.5-3.4-2.5-2.6-4.4c0.6-1.5,2.5-3.5,3.9-3.6
				c9.8-0.3,19.6-0.2,29.4-0.1c1.1,0,2.9,1.2,3,2.1c0.3,1.4,0,3.5-1,4.2c-1.8,1.3-4.2,2.3-6.4,2.4
				C178-385.3,171.6-385.5,164.8-385.5z"/>
		</g>
		<g>
			<path class="st1" d="M64.9-1011.6c0,2.8,0,5.4,0.2,8c3.4,0.5,6.7,1.4,9.9,1.4c79.2,0.1,158.4,0.1,237.6,0.1c0.8,0,1.6,0,2.4,0
				c2.9,0,4.2-1.4,4.4-4.1c0.3-4.6-1.9-8.1-5.1-11.4c-5.2-5.5-10.9-10.8-15.4-16.8c-3.7-5-8.5-7-14.4-7c-61.8-0.1-123.6-0.1-185.4,0
				c-2.4,0-5.5,0.5-7,1.9c-6.1,5.7-11.8,11.9-17.6,18C71.3-1018.3,68.1-1015,64.9-1011.6L64.9-1011.6z M98.1-1014.7
				c-1.6,0-3.3,0.7-4.9,0.6c-1.4-0.1-3.2-0.6-3.9-1.6c-0.6-0.8-0.5-2.7,0.1-3.6c4.2-6,9.8-9.6,17.9-9.6c57.5,0.1,115,0,172.6,0
				c5.5,0,15.9,7.4,16.9,12.3c0.1,0.7-1.6,2.3-2.6,2.4c-2.4,0.2-4.8-0.6-7.2-0.6c-13.3-0.1-26.6,0-39.9,0
				C197-1014.7,147.5-1014.7,98.1-1014.7z"/>
			<path class="st1" d="M882.1-1752.3c-60.1,0-120.1,0-180,0.2c-0.5,0.6-1,1.2-1.5,1.3c-9.4,1.4-12.9,9.6-12.9,16.5
				c0,40.6-0.3,81.2,0.2,121.9c0.1,11.2,5.3,17.3,17.9,17.2c22.4-0.2,44.9-0.1,67.4-0.1c34.9,0,69.9,0.1,104.8-0.1
				c7.3,0,13.6-3.2,14.8-10.1c0.8-4.5,2.2-9.1,2.2-13.6c-0.1-38.2-0.4-76.3-0.7-114.5c0-6-2-11.4-7.3-15.4
				C885.5-1750.1,883.9-1751.2,882.1-1752.3 M868.7-1744c3.3,0,6.6,1.2,9.8,2c5.2,1.4,6.9,5.2,6.9,9.8c0,39.2,0.1,78.3-0.1,117.5
				c0,7.6-3.7,11-11.8,11c-55.3,0.2-110.6,0.1-165.9,0.1c-5.3,0-8.6-2.4-9.6-7.3c-0.8-4-1.6-8-1.6-12c-0.1-35.1,0.1-70.1-0.1-105.2
				c-0.1-12.2,5.4-16.3,17.2-16C765.9-1744.1,817.3-1744.1,868.7-1744z"/>
			<path class="st1" d="M1038.2-666.3c-5.7-4.3-4.9-9.9-3.3-15.2c4.5-15.2,9.5-30.3,14.3-45.4c7.2-22.9,14.3-45.7,21.6-68.6
				c2.2-7,5.8-8.9,13.2-7.6c2.5,0.4,4.9,4.3,5.2,7.7c0.7,9.1-3.3,17.2-5.9,25.6c-4.9,16.2-9.9,32.3-14.9,48.5
				c-3.4,10.8-6.9,21.6-10.4,32.4c-1.8,5.6-3.6,11.2-5.6,16.8c-0.7,1.9-2.1,3.7-3.1,5.7C1045.6-666.3,1042-666.3,1038.2-666.3z"/>
			<path class="st1" d="M1167.2-731.1c-1.2,0.9-2.5,1.4-3.4,2.3c-15.3,14.2-30.5,28.4-45.7,42.5c-4.2,3.9-6,3.9-10.2,0.1
				c-1.1-1.1-2.5-2-3.3-3.2c-3.7-5-3.6-7.9,0.1-11.2c11.1-10.1,22-20.4,33-30.7c3.3-3,3.3-4.3,0-7.4c-10.3-9.7-20.5-19.5-31.1-28.8
				c-5.8-5.1-5.3-11-1.8-14.1c4.4-4,11.4-3.8,16.3,0.8c7.6,7.2,15,14.5,22.6,21.7c7.6,7.2,15.4,14.4,23.3,21.6
				C1167.2-735.5,1167.2-733.4,1167.2-731.1z"/>
			<path class="st1" d="M1056.6-1472c-5.7,0.7-7.9,4.6-9.2,8.7c-1.9,5.8-5.2,11.4-3.3,17.8c1.4,4.7,3.3,9.1,9.3,10.4
				c3.2,0.7,4.6,2.8,4.2,6c-0.7,6-1,12-1.7,18c-0.9,7.7-2.3,15.3-3.1,22.9c-1.2,11.5-2.1,23-3.2,34.4c-0.4,4.6-0.6,9.3-1.7,13.9
				c-2,8.9,0.8,14.1,10.1,16.8c3.5,1,7.2,1.9,10.8,2.6c7.7,1.6,15.3,3.3,23,4.8c8.6,1.7,17.1,3.3,25.7,5c7.3,1.4,14.5,3.5,22.1,3.3
				c4.5-0.1,7.4-1.6,8.9-5.3c4.6-11.6,9.2-23.2,13.5-34.9c6.8-18.2,13.5-36.4,19.8-54.8c1.3-3.8,3.3-4.8,7-4.8
				c2.3,0,5.1,0.3,6.7-0.8c4.5-3,8.4-6.7,9.5-12.1c0.4-1.8,0.5-3.8,1.2-5.5c2.7-7,0.7-12.8-4.7-18.1c-1.7-1.7-3.1-4.1-3.5-6.4
				c-0.9-5.3-1.2-10.7-1.8-16.1c-0.1-0.5-0.6-1-0.8-1.6c-1.9-5.9-7.7-6.5-12.8-7.7c-9.3-2.2-18.7-3.9-28.1-5.8
				c-11.1-2.3-22.1-4.6-33.2-6.9c-10.5-2.2-20.9-4.3-31.4-6.5c-5.4-1.1-11.1-2.2-15.3,2.1c-3.3,3.3-5.8,7.3-8.4,11.2
				C1064-1477.5,1061.5-1473.8,1056.6-1472 M1104.3-1346.9c-8.9-1.7-17-3.5-25.2-5.2c-5-1-10.1-1.7-15-3.1c-3.1-0.8-2.7-3.8-2.5-6.1
				c0.4-3.9,1.1-7.8,1.5-11.6c1.1-10,2.1-20,3.2-30c0.6-5.4,3.1-7,8.8-5.7c12.5,2.7,24.9,5.6,37.4,8.1c15.2,3.1,30.6,6,45.8,9
				c4.5,0.9,5.8,2.9,4.4,6.7c-4.5,12.4-9,24.7-13.6,37.1c-0.6,1.7-1.2,3.5-2,5.2c-1.3,3-4.1,4-8.5,3c-9.1-2-18.2-4-27.2-5.9
				C1109.2-1345.9,1106.7-1346.4,1104.3-1346.9 M1143.4-1427.9c-6.5-1.2-12.2-2.5-17.9-3.7c-9-2-17.9-4.1-26.9-5.9
				c-12.6-2.6-25.2-5-37.7-7.5c-4.2-0.8-5.2-2.3-4.1-6.4c0.6-2.3,0.8-4.7,1.7-6.8c0.7-1.6,1.2-3.4,4.6-2.6
				c14.5,3.3,29.2,6.1,43.8,9.1c10.6,2.2,21.1,4.5,31.7,6.7c12.8,2.6,25.7,5,38.5,7.5c3.8,0.7,7.6,1.4,11.4,2.2
				c6.3,1.4,7.4,3.5,5.2,10.2c-2.2,7-2.6,6.9-9.8,5.4c-12.4-2.5-24.9-5-37.3-7.5C1145.5-1427.4,1144.5-1427.7,1143.4-1427.9
				 M1087.5-1483.7c8.9,1.6,16.9,3.1,25,4.7c11.8,2.4,23.7,4.8,35.5,7.2c6,1.2,11.9,2.5,17.8,3.9c4.7,1.1,9.3,2.3,13.9,3.6
				c5.7,1.6,8.8,9.4,6.4,14.5c-1.4,3-3.6,1.9-5.5,1.5c-9.7-1.8-19.3-3.7-28.9-5.7c-8.8-1.8-17.5-3.7-26.2-5.5
				c-8.3-1.7-16.6-3.2-24.9-4.9c-7.1-1.5-14.2-3.2-21.4-4.8c-0.9-0.2-2,0-2.6-0.4c-0.9-0.7-2.2-2.2-2-2.6c2.2-3.6,4.6-7.2,7.3-10.5
				C1083.1-1484.2,1085.3-1485.5,1087.5-1483.7 M1133-1401.9c-10.1-2.5-19.8-4.7-29.5-6.6c-9.6-1.9-19.2-3.6-28.8-5.2
				c-4.2-0.7-6-2.5-5.9-6.5c0.1-2.4,0.5-4.8,0.6-7.2c0.3-3.7,3.2-4,5.9-3.4c12.4,2.6,24.7,5.5,37.1,8.1c14.3,2.9,28.7,5.4,43,8.3
				c4.4,0.9,8.8,2.3,13.1,3.8c1.1,0.4,2.5,2.2,2.3,3.2c-0.6,3-1.5,6.1-3,8.8c-1.4,2.4-3.6,3.1-7.2,2.2
				C1151.5-1398.8,1142.2-1400.2,1133-1401.9 M1127.7-1319.4c-12.9-2.7-25.7-5.5-38.6-8.2c-8.5-1.8-17.1-3.3-25.5-5.4
				c-1.7-0.4-4-2.9-4-4.6c-0.1-3.3,0.8-6.8,1.8-10c0.4-1.3,1.3-2.5,4.1-1.8c9.9,2.5,20,4.1,30,6.1c11.1,2.3,22.1,4.6,33.2,6.9
				c2.3,0.5,4.7,0.8,7,1.3c6.9,1.4,8.3,3.9,5.9,10C1138.4-1317.9,1137-1317.4,1127.7-1319.4z"/>
			<path class="st1" d="M926.5-1090.3c-3.8-5-7-10.1-11-14.6c-4.9-5.4-11.4-8.9-18.3-11.6c-3.5-1.4-5.5-3.8-6.3-7
				c-4.2-17.4-16-29.2-32.1-37.6c-11.1-5.8-23.4-7.9-36-6.6c-7.1,0.7-14.6,1.9-21,4.7c-13.6,5.9-24.1,15.4-31.4,27.8
				c-1.3,2.2-2.7,3.2-5.6,3.1c-4.5-0.3-9,0.1-13.6-0.1c-14.5-0.5-27.6,3.6-39.2,11.3c-10.4,6.8-18,15.8-22.5,27.1
				c-3.6,9.1-3.6,18.3-2.6,27.5c0.7,6.6,3.1,13.4,6.4,19.3c5.3,9.5,13.1,17.2,23.2,22.8c8.9,5,18.5,7.9,28.5,9.3
				c8,1.1,16.2,0.9,24.4,0.9c32.9-0.1,65.7-0.5,98.6-0.7c12.7-0.1,24.7-2.5,35.8-8.2c10.9-5.7,18.7-14.2,23.5-24.9
				c2-4.3,3.1-9,4-13.7c0.7-3.5,0.9-7.2,0.3-10.6C930.4-1078.1,928.4-1084.1,926.5-1090.3 M720.6-1037.2
				c-8.7-5.8-15.9-13.6-18.7-23.8c-3.2-11.3-3-22.7,3.2-33.1c7.4-12.6,18.3-21.9,34-24.5c11.4-1.9,23-2.1,33.9,2.7
				c3,1.3,4.5,0.6,5.4-2.6c2.4-8.7,6.6-16.7,13.7-22.9c6.7-6,14.3-11.4,23.7-12.8c15.4-2.3,30.4-1.2,43.3,8.6
				c11.6,8.8,18.8,19.7,19.9,33.9c0.1,1.5,2,3.8,3.4,4.1c15.1,3,25.2,11.9,31.9,24.2c2.6,4.8,4.6,10.8,4.1,16.1
				c-0.9,8.7-4.2,17-10.5,24.1c-7.3,8.3-16.2,13.2-27.7,14.7c-21.1,2.8-42.4,0.9-63.5,1.3c-19.3,0.4-38.5,0.1-57.8,0.1
				C744.4-1027,731.5-1029.9,720.6-1037.2z"/>
			<path class="st1" d="M489.1-806.7c6.2,8.3,7.7,17.4,7,27.1c-0.3,3.7-1.8,5.1-5.7,5.1c-31.9,0-63.8,0-95.7,0c-5.7,0-7,1.3-7,6.5
				c0,34.1,0,68.1,0,102.2c0,4.5,2.2,6.5,7.1,6.5c71.9,0,143.8,0,215.7,0c3.8,0,6.1-1.5,6.9-4.8c0.8-3.5,1.6-7.1,1.6-10.7
				c0.1-29.9,0.1-59.7,0-89.6c0-7.5-3.3-10.2-11.2-10.2c-31.8,0-63.5,0-95.3,0c-4.2,0-5-0.8-5.1-4.9c-0.2-6.2,0.1-12.5-0.9-18.6
				c-1.4-8.6-5.5-16.2-13.4-21.5c-8-5.3-16.5-9.1-26.6-9.3c-3.8-0.1-6.6,1.9-6.9,4.8c-0.3,3.5,1.7,5.7,5.2,6.3
				c3.2,0.6,6.8,0.2,9.8,1.3C480.2-814.6,485.5-811.9,489.1-806.7 M403.6-670.5c-4.4,0.2-6.2-1.3-6.3-6c-0.2-7.3-0.1-14.6-0.1-21.9
				c0-19.6,0.1-39.1-0.1-58.7c0-4.2,2.3-6.4,6.9-6.4c65.1,0.1,130.2,0.1,195.3,0.1c5.6,0,6.9,1.2,6.9,6.3c0,8.6,0,17.2,0,25.8
				c0,16.3,0,32.6,0,48.9c0,2.4-0.1,4.8,0,7.2c0.2,3.6-2.3,4.4-5.3,4.8c-0.7,0.1-1.3,0-2,0c-62,0-124.1,0-186.1,0
				C409.2-670.5,406.4-670.6,403.6-670.5z"/>
			<path class="st1" d="M232.4-1047.4c16.3,0,32.3,0.1,48.2,0c5.3,0,10.9-3.3,10.8-7.6c-0.1-34.6-0.1-69.1-0.1-103.7
				c0-3.9-2.5-6.1-6.7-6.1c-61.4,0-122.8,0-184.2,0c-4.6,0-6.1,1.4-6.1,5.8c0,35.1,0,70.1-0.1,105.2c0,2.6,1.1,4.2,3.6,4.9
				c2.1,0.7,4.3,1.5,6.5,1.5C147-1047.4,189.5-1047.4,232.4-1047.4L232.4-1047.4z M114.4-1060.2c-5.2,0-7.2-1.6-7.2-6.3
				c-0.1-27.2-0.1-54.5,0-81.7c0-3.3,2.7-5.6,6.4-5.6c15.1,0,30.4-1,45.4,0.2c37.5,2.8,75.1,0.4,112.6,1.3c5.1,0.1,5.4,0.3,5.4,4.9
				c0,27.2,0,54.5,0,81.7c0,4.7-0.9,5.5-6,5.5c-23.7,0-47.3,0-71,0C171-1060.2,142.7-1060.2,114.4-1060.2z"/>
			<path class="st1" d="M486.4-1443.2c-1.9-0.2-3.4-0.8-4.9-0.7c-3.5,0.3-7,1.1-10.5,1.4c-7.4,0.5-14,3.1-20.3,6.3
				c-5.1,2.6-6.2,2.4-9-2.4c-4.2-7-6.4-14.6-7.1-22.5c-0.2-1.9-0.1-3.8,0-5.7c0.2-2.3,1.1-4.6,0.6-6.7c-0.4-1.7-2.2-3.9-3.8-4.3
				c-1.2-0.3-4,1.6-4.6,3.1c-1.2,2.8-1.7,6-1.7,9c0,3.6,1.1,7.3,1.5,10.9c0.8,7.2,3.3,13.8,7.6,19.7c2.9,4,3.4,7.5,0.4,11.4
				c-0.3,0.4-0.6,0.8-0.9,1.1c-5.6,7.4-10.1,15.1-12.1,24.4c-2.7,12.6-1.3,24.3,4.9,35.3c3.3,6,8.3,11.2,12.8,16.6
				c6.8,8.1,13.8,16,20.8,23.9c4.7,5.3,10.1,10.1,14.2,15.7c5.6,7.8,13.5,12.8,21.8,17.3c9.6,5.3,20.3,5.5,31.1,5.4
				c9.9-0.1,18.9-2.1,27.4-6.7c7.8-4.2,14.4-9.8,19.1-16.6c7.7-11.2,11.3-23.8,10.1-37.3c-0.7-8.1-3-15.8-7.7-22.7
				c-3.4-5-7.2-9.7-11.2-14.2c-8.6-9.7-17.5-19.3-26.2-28.9c-3.4-3.7-6.6-7.6-10-11.4c-6.7-7.3-14.5-13.5-24.3-16.8
				C498.6-1440.6,492.6-1441.8,486.4-1443.2 M522.7-1399.4c1.2-1.3,1.9-2.2,2.6-3.2c2.4-3.3,5-3.8,7.9-1c4.1,4,8,8.2,11.9,12.5
				c4.7,5.2,9.2,10.6,13.9,15.8c7.4,8.2,14,17.1,15.7,27.7c1.4,9,1,18.3-3.3,27.2c-4.9,10.2-12.3,18.3-22.6,23.7
				c-4.3,2.2-9.5,3.1-14.4,4.3c-3.2,0.8-6.5,1.5-9.7,1.5c-10-0.2-19.7-2.5-28.1-7.5c-5.7-3.5-10.5-8.5-15.2-13.2
				c-5.4-5.5-10.2-11.4-15.3-17.1c-4.1-4.6-8.3-9.1-12.4-13.8c-1.6-1.9-0.8-3.5,1.3-4.8c12.4-7.8,25.3-14.9,36.9-23.6
				c9.5-7.1,17.4-15.9,26.1-23.9C519.5-1396.4,521.1-1397.9,522.7-1399.4 M516.7-1405.7c-4.9,5.3-9.3,10.4-14,15.2
				c-2.5,2.5-5.5,4.8-8.6,6.5c-3.4,1.9-9.4-1.7-9.9-6.5c-0.9-8.6-5.2-15.4-10.6-22c-2.5-3.1-11.5-7.3-14.6-6.4
				c-7.7,2.2-10.1,7.9-6.5,15.8c2.7,5.9,7.9,10,12.9,13.9c2.8,2.2,7.7,2.1,10.8,4.1c2.8,1.8,4.8,4.8,6.7,7.6c0.4,0.6-1,2.9-2.2,3.7
				c-5.6,4-11.4,7.8-17.2,11.5c-4.1,2.6-8.4,5-12.6,7.4c-3.3,1.9-7.6,0.7-10-2.3c-6.2-7.7-9.8-16.6-11.8-25.9
				c-0.8-3.8,0.1-8,0.7-11.9c1.6-10.8,7.3-19.8,15.5-27.4c6.7-6.2,15-9.9,24.1-12c20.2-4.5,36.4,2.6,50.2,15.8
				c3.6,3.4,3.5,5.3,0.1,9.2C518.8-1408.1,517.7-1406.9,516.7-1405.7 M461-1405.7c-0.6-0.9-0.2-2.2-0.3-3.4c1.3,0.1,3.3-0.4,3.9,0.3
				c3.1,3.3,6,6.8,8.7,10.3c0.3,0.4,0.1,1.9-0.4,2.1c-0.7,0.4-2.1,0.5-2.6,0.1c-1.8-1.4-3.4-3.1-5.1-4.6
				C463.5-1402.7,462-1404.1,461-1405.7z"/>
			<path class="st1" d="M993.9-773.5c4.7-3.9,8.1-8.8,14.4-10.5c4.8-1.3,9.6,0.4,11.3,3c3.3,4.9,2.9,8.3-1.2,12.1
				c-10.2,9.6-20.5,19.1-30.7,28.7c-1.1,1-1.8,2.3-2.9,3.3c-2.1,1.9-1.2,3.3,0.5,4.9c10.8,10,21.6,20.1,32.4,30.2
				c4.4,4.1,5,6.1,3.1,10.2c-2,4.2-7.4,7.7-11.7,7.4c-1.2-0.1-2.5-0.6-3.3-1.4c-15.5-14.3-31-28.6-46.2-43.1
				c-4.4-4.2-3.8-8-0.1-11.4C971.1-751,982.4-762.2,993.9-773.5z"/>
			<path class="st1" d="M300.4-1735.4c1.8,2.4,1.9,4.6-0.2,6.5c-1.8,1.7-3.8,2.4-6.4,1.1c-6-2.9-12-5.8-18.2-8.4
				c-11.3-4.8-23-8.3-35.3-10.2c-10.4-1.7-20.8-2.5-31.3-2.2c-12,0.4-23.6,2.5-35.1,5.2c-12.5,3-23.9,8.4-35.2,14.1
				c-1.2,0.6-2.5,0.9-3.7,1.5c-3.2,1.8-6.2,0.6-7.5-1.9c-1.3-2.5-0.4-5.3,2.8-7.1c12.6-7.3,25.8-13,40.2-16.2
				c9.2-2,18.5-3.5,27.9-4.4c8.9-0.9,17.9-1.2,26.7-0.8c16.7,0.7,33.1,3.8,48.6,9.8c8.1,3.1,15.7,7.1,23.5,10.7
				C298.2-1737.2,299.1-1736.3,300.4-1735.4z"/>
			<path class="st1" d="M187.7-1710c11.5-2.2,22.8-3.9,34.1-2.9c17.4,1.5,34.1,5.4,49.1,14.1c2.4,1.3,3.9,6.2,2.9,8.5
				c-0.9,2-4.3,2.5-7.6,1.1c-7.3-3-14.5-6.3-22-8.8c-5.7-1.9-11.8-2.9-17.8-3.7c-5.4-0.7-10.9-0.9-16.4-0.8
				c-11.3,0.2-22.1,2.7-32.5,6.7c-4.9,1.9-9.6,4-14.4,6.2c-4.3,1.9-6.8,1.8-8.1-0.6c-1.8-3.3-0.5-6.4,3.4-8.6
				c8.8-5.1,18.4-8.3,28.4-10.6C187-1709.5,187.1-1709.8,187.7-1710z"/>
			<path class="st1" d="M211.6-1626c-9.2,2.9-13.7,6-12.9,16.4c0.5,6.7,2.7,10,9.5,12.9c6.5,2.8,14,0.8,19.6-5.4
				c3.1-3.4,4.1-10.6,1.2-15.3C225.4-1623.3,220.1-1627.2,211.6-1626 M218.7-1611.8c0.3,2.3,0.6,5-2.7,5.9c-2.8,0.7-4.9-0.6-6-2.9
				c-1.4-2.9-0.9-5.5,2.7-6.7C216.6-1615.8,218.5-1614.5,218.7-1611.8z"/>
			<path class="st1" d="M241.9-1649.8c-5.1-1.7-9.7-3.6-14.4-5.2c-13.1-4.4-25.3-1.4-37.3,4c-0.2,0.1-0.4,0.4-0.6,0.5
				c-4.7,2.2-6.6,2-8.3-0.9c-2-3.5-1.2-6.9,2.9-8.7c6.8-3,13.9-5.8,21.6-6c6.2-0.2,12.4-0.5,18.5,0.1c7.8,0.8,15.4,2.9,21.6,7.8
				c1.4,1.1,2.8,3.3,2.5,4.8C248-1650.7,245.4-1649.6,241.9-1649.8z"/>
			<path class="st1" d="M742.9-1663.6c-3.8,2.3-7.3,4.5-11,6.5c-2.5,1.3-5.5,0.5-6.3-1.7c-0.5-1.5,0.9-4.5,2.5-5.7
				c8.6-6.4,17.5-12.5,26.4-18.6c3.4-2.3,3.9-3.4,0.7-5.8c-7.2-5.4-14.7-10.6-22-15.8c-2-1.5-4.1-2.9-6-4.5
				c-2.3-1.9-3.1-4.7-0.7-6.4c1.5-1.1,5.2-1.3,6.7-0.3c6.7,4.2,13.1,8.9,19.6,13.5c4.9,3.4,9.6,7,14.6,10.3
				c5.3,3.5,5.8,7.2,0.8,10.9C759.9-1675.2,751.5-1669.6,742.9-1663.6z"/>
			<path class="st1" d="M787.4-1637.8c-2.5-0.2-4.7-0.4-6.8-0.8c-2.7-0.5-3.4-2.5-2.6-4.4c0.6-1.5,2.5-3.5,3.9-3.6
				c9.8-0.3,19.6-0.2,29.4-0.1c1.1,0,2.9,1.2,3,2.1c0.3,1.4,0,3.5-1,4.2c-1.8,1.3-4.2,2.3-6.4,2.4
				C800.5-1637.6,794.2-1637.8,787.4-1637.8z"/>
			<path class="st1" d="M478.6-680.9c-6.9,0-13.4,0.3-19.9-0.1c-6-0.4-7.9-2.4-7.1-6.7c0.7-4.1,4.9-3.3,7.8-4.3c0.7-0.3,1.6,0,2.4,0
				c28,0,56.1,0,84.1,0c5.3,0,7.8,1.3,7.7,4.3c-0.1,3.8-2.6,6.8-8.3,6.8C523.1-680.8,501-680.9,478.6-680.9z"/>
			<path class="st1" d="M404.4-706.2c-1.1-3.1,0.4-5.7,4.1-5.9c5.7-0.3,11.4-0.4,17.1,0.1c1.8,0.2,4.8,2.4,4.8,3.7
				c0,2-1.7,5-3.5,5.8c-6.4,2.8-13.2,2.3-19.7,0C406-703,405.3-704.7,404.4-706.2z"/>
			<path class="st1" d="M559.9-712.1c2.9,0,5.6-0.4,7.2,2.2c2.7,4.2,0.1,8.7-5.5,8.9c-5.1,0.2-10.2-0.2-15.2-0.7
				c-3-0.3-4.1-2.6-4.1-5.5c0-3.6,2.9-4.5,5.6-4.8C551.8-712.4,555.7-712.1,559.9-712.1z"/>
			<path class="st1" d="M460.4-704.9c-3-2.5-4.5-5.1-2.6-8.7c2.1-4,5.2-4.9,10.8-3c3.1,1.1,4.5,4.2,3.5,7.9
				C470.6-703.5,465.8-701.8,460.4-704.9z"/>
			<path class="st1" d="M508.3-721.2c-4.5-4.8-4.7-9.5-0.1-11.9c2-1,5.4-1,7.6-0.1c3.7,1.4,4.3,5,3.3,8.1c-0.8,2.4-2.6,4.7-6.3,4.2
				C511.4-721.2,509.9-721.1,508.3-721.2z"/>
			<path class="st1" d="M520.6-753.2c4.8-2.6,10.4-1.6,11.6,4.5c0.6,2.9-1.9,7-5.1,7.6c-4.1,0.8-8.2-1.2-8.6-4.6
				C518.2-748.2,517.9-751,520.6-753.2z"/>
			<path class="st1" d="M508.9-747.8c-1.1,3.3-1.4,6.6-6,6.7c-3,0.1-5.5-0.3-6.7-3.1c-1.6-3.6-0.9-7.5,1.8-9.4
				C502.8-757.1,507.7-755.2,508.9-747.8z"/>
			<path class="st1" d="M530.4-721.1c-5.3-2.8-6.4-7.4-3.1-10.9c2.5-2.7,5.2-3.1,8.8-1.4c3.1,1.5,4.2,3.9,3.8,6.6
				c-0.7,4.3-2.7,5.6-7.1,5.6C532.1-721.1,531.5-721.1,530.4-721.1z"/>
			<path class="st1" d="M547.9-741.1c-4.3-0.2-7.3-3.4-7.2-7.2c0.1-3,3.5-5.9,6.6-6.3c3.9-0.4,7.8,3.6,7.8,6.3
				C555.2-744.3,552.6-741.4,547.9-741.1z"/>
			<path class="st1" d="M503.3-713.6c3.9-0.4,6.7,0.8,7.7,3.9c0.9,2.7,1.1,6-1.8,7.9c-2.4,1.6-5.1,2.3-8.2,0.8
				c-3.6-1.8-4-4.9-3.1-7.7C498.5-710.6,501.2-712,503.3-713.6z"/>
			<path class="st1" d="M416.2-752.1c3.4,5.2,0.6,10.7-5.3,11c-3.7,0.2-5.3-1.9-6.8-4.4c-1.5-2.7-0.7-5.5,1.4-7.2
				c2.2-1.7,5.2-3,8.4-1.1C414.6-753.3,415.2-752.8,416.2-752.1z"/>
			<path class="st1" d="M556.5-721.2c-1.3,0.2-2.3,0.2-3.4,0.2c-4.9,0-6.8-1.1-7.5-5.7c-0.6-3.7,2.4-5.5,5.7-7
				c3.5-1.7,5.3,0.3,7.2,2.2c2.2,2.3,1.8,6.3-0.4,8.8C557.7-722.3,557.2-721.9,556.5-721.2z"/>
			<path class="st1" d="M417-724.2c-1.4,3.5-4.4,3.1-7.2,3.2c-2.9,0-5.2-1.4-5.7-3.8c-0.4-2,0.2-4.5,1.2-6.2
				c1.9-3.1,5.1-4.2,8.8-2.6C417.3-732.4,418.2-729.3,417-724.2z"/>
			<path class="st1" d="M484.9-727c1.3-6.2,5.2-8.6,9.8-6.9c3.8,1.4,4.2,4.8,4.1,7.4c-0.1,4.3-2.4,5.4-7.9,5.4
				C486.8-721,485.6-723.5,484.9-727z"/>
			<path class="st1" d="M441.1-749.3c0.4,3.9-1.3,6.3-4.7,7.7c-2.9,1.2-5.4,0.4-7.6-1.7c-2.3-2.3-2.4-5.3-1.1-7.7
				c0.9-1.6,3.3-2.9,5.3-3.4c2.7-0.7,5.2,0.3,6.5,3.1C439.8-750.7,440.5-750.2,441.1-749.3z"/>
			<path class="st1" d="M425.7-723.8c-2.1-6.6,0.2-10.6,5.8-10.6c4,0,6.4,2.7,6.4,7.1c0,4.7-1.5,6.2-6,6.2
				C429.5-721.1,426.7-720.4,425.7-723.8z"/>
			<path class="st1" d="M483.1-753.6c3.1,2.6,3.2,5.6,2.1,8.7c-1.2,3.4-4.8,4.7-8.3,3.4c-3.9-1.5-5.7-5.2-4.3-8.6
				C474.7-754.9,478.4-755.4,483.1-753.6z"/>
			<path class="st1" d="M570.5-721.2c-3.8-2-5.3-6.3-3.4-9.1c2.9-4.2,6.3-5.4,9.6-3c3.8,2.7,5.1,7.5,1.9,10.5
				C577-721.3,573.4-721.6,570.5-721.2z"/>
			<path class="st1" d="M441.9-682.4c-3.4,3.4-6.1,3.8-9,1.6c-3-2.3-4.1-7.2-2.2-10c1.3-1.9,5.9-2.8,8.8-1.6c3,1.1,4.3,3.3,3.9,6.2
				C443.2-685,442.4-683.9,441.9-682.4z"/>
			<path class="st1" d="M455.6-722.4c-5.7,2.6-8.8,1.3-10.9-3.8c-1.5-3.5,1.3-5,3.2-6.9c2.3-2.3,5.1-1.5,7.2-0.4
				c2.3,1.3,4.2,3.5,3.4,6.3C458.1-725.4,456.8-724,455.6-722.4z"/>
			<path class="st1" d="M571.9-741.1c-5,0-8.5-3.5-7.9-7.6c0.6-4,3.6-6.1,8.2-5.8c3.7,0.2,4.6,3,5.3,5.5
				C578.4-745,576.8-742.9,571.9-741.1z"/>
			<path class="st1" d="M600.6-726.3c-1.5,5-5.2,5.9-9.6,5.2c-0.9-0.1-1.9-0.7-2.5-1.4c-1.5-1.7-1.1-7.9,0.4-9.5
				c1.8-1.9,4.1-3.2,6.8-2.2C599-732.9,601.1-730.4,600.6-726.3z"/>
			<path class="st1" d="M577.3-703c-2.3-4.4-2.1-7.6,1.7-9.1c2.4-1,6.2-0.7,8.6,0.4c3.7,1.7,2.7,6.6,0.7,9.1
				C585.4-699.2,581.3-699.4,577.3-703z"/>
			<path class="st1" d="M585.6-692.6c2.8,0.2,5.8,0.1,7.8,1.2c2.7,1.5,3.1,4.3,1.6,7.2c-1.6,3.1-4.2,4.5-7.7,4
				c-3.3-0.5-5.3-2.9-5.8-5.7C581.1-688.7,582.7-691,585.6-692.6z"/>
			<path class="st1" d="M531.2-704c-2.3,2.9-4.9,4.7-8.7,3.4c-3.7-1.3-5.5-5.6-4-9.5c0.8-2.1,6.7-3.8,9.8-2.8
				C531.6-711.8,532.9-708.2,531.2-704z"/>
			<path class="st1" d="M473-721.1c-6.3,0-9.9-5.3-7.1-10.1c1.4-2.5,5.3-3.9,7.9-2.9c3.7,1.4,6.1,5.4,4.4,8.3
				C477.2-723.9,475-722.6,473-721.1z"/>
			<path class="st1" d="M463.4-748.6c-0.4,4-2.1,6.8-6.1,7.4c-2.9,0.4-5.6-0.2-6.7-3.4c-1.6-4.5-0.8-7.2,3-9.2
				c3-1.6,5.6-0.6,7.7,1.5C462.3-751.3,462.8-750,463.4-748.6z"/>
			<path class="st1" d="M478.6-711.4c3.3-0.5,6.9-1.4,9.8-0.5c3,0.9,2.5,4.6,2,7.1c-0.5,3-2.8,4.3-6.2,3.9c-2.4-0.3-5.1,0.7-6.5-2.1
				C476.4-705.8,476.4-708.5,478.6-711.4z"/>
			<path class="st1" d="M566.5-679.6c-4.5-1-5.5-4.3-5.6-7.5c0-1.6,1.4-4.1,3-4.8c2.1-0.9,5.2-1.1,7.2-0.3c2.9,1.2,4.1,4.3,3,7
				c-0.7,1.9-2.9,3.4-4.6,4.9C568.8-679.7,567.6-679.7,566.5-679.6z"/>
			<path class="st1" d="M410.6-691.5c3.4-2.1,7.3-1.7,9.9,0.7c2.7,2.4,2.5,5,0.6,7.8c-1.3,1.9-6.5,3.7-8.9,2.8
				c-1.1-0.4-2.8-1.5-2.8-2.4C409.5-685.5,410-688.4,410.6-691.5z"/>
			<path class="st1" d="M598.2-743.4c-2.5,2.5-5.4,3.2-8.4,1.4c-2.5-1.6-3.3-6.1-1.9-9.3c1.3-2.9,3.8-3.6,6.8-3.2
				C598.7-754,602.2-749.5,598.2-743.4z"/>
			<path class="st1" d="M436.5-703.4c-0.1-2.8-2.1-5.6,1-8.1c3-2.3,6-1.9,9-0.6c2.9,1.2,3,3.5,2,6.2c-0.7,1.8,0.1,4.6-2.8,4.8
				C442.6-700.9,438.9-699.9,436.5-703.4z"/>
			<path class="st1" d="M264.6-1142.4c0,0-94.7,0-141.7,0c-4.5,0-6.9,2.1-6.9,6.3c0,20.3,0,40.6,0,60.9c0,2.8,1.3,4.8,4,5.6
				c3.4,1,7,2.2,10.5,2.2c30.4,0.2,60.8,0.1,91.2,0.1c11.7,0,23.4,0.3,35.1-0.1c6.7-0.2,12.6-2.2,12.4-11.4
				c-0.3-18.9-0.1-37.9-0.1-56.8c0-3.2-1.1-5.5-4.8-6.8H264.6z M250.4-1130c4.8,0,5.2,0.4,5.2,4.8c0,13.3,0,26.5,0,39.8
				c0,4.3-1,5.2-5.5,5.2c-38.3,0-76.6-0.1-114.8,0.1c-4.5,0-6.4-2.6-6.4-6c-0.1-12.9-0.1-25.8,0-38.7c0-3.7,1.7-5.2,5.6-5.2
				c10.2,0,20.5,0,30.7,0C194-1130,222.2-1130,250.4-1130z"/>
		</g>
		<g>
			<path class="st1" d="M687.5-2263.9c0,2.8,0,5.4,0.2,8c3.4,0.5,6.7,1.4,9.9,1.4c79.2,0.1,158.4,0.1,237.6,0.1c0.8,0,1.6,0,2.4,0
				c2.9,0,4.2-1.4,4.4-4.1c0.3-4.6-1.9-8.1-5.1-11.4c-5.2-5.5-10.9-10.8-15.4-16.8c-3.7-5-8.5-7-14.4-7c-61.8-0.1-123.6-0.1-185.4,0
				c-2.4,0-5.5,0.5-7,1.9c-6.1,5.7-11.8,11.9-17.6,18C693.9-2270.6,690.7-2267.3,687.5-2263.9L687.5-2263.9z M720.7-2267
				c-1.6,0-3.3,0.7-4.9,0.6c-1.4-0.1-3.2-0.6-3.9-1.6c-0.6-0.8-0.5-2.7,0.1-3.6c4.2-6,9.8-9.6,17.9-9.6c57.5,0.1,115,0,172.6,0
				c5.5,0,15.9,7.4,16.9,12.3c0.1,0.7-1.6,2.3-2.6,2.4c-2.4,0.2-4.8-0.6-7.2-0.6c-13.3-0.1-26.6,0-39.9,0
				C819.5-2267,770.1-2267,720.7-2267z"/>
			<path class="st1" d="M1111.7-2059c6.2,8.3,7.7,17.4,7,27.1c-0.3,3.7-1.8,5.1-5.7,5.1c-31.9,0-63.8,0-95.7,0c-5.7,0-7,1.3-7,6.5
				c0,34.1,0,68.1,0,102.2c0,4.5,2.2,6.5,7.1,6.5c71.9,0,143.8,0,215.7,0c3.8,0,6.1-1.5,6.9-4.8c0.8-3.5,1.6-7.1,1.6-10.7
				c0.1-29.9,0.1-59.7,0-89.6c0-7.5-3.3-10.2-11.2-10.2c-31.8,0-63.5,0-95.3,0c-4.2,0-5-0.8-5.1-4.9c-0.2-6.2,0.1-12.5-0.9-18.6
				c-1.4-8.6-5.5-16.2-13.4-21.5c-8-5.3-16.5-9.1-26.6-9.3c-3.8-0.1-6.6,1.9-6.9,4.8c-0.3,3.5,1.7,5.7,5.2,6.3
				c3.2,0.6,6.8,0.2,9.8,1.3C1102.7-2066.9,1108-2064.2,1111.7-2059 M1026.2-1922.8c-4.4,0.2-6.2-1.3-6.3-6
				c-0.2-7.3-0.1-14.6-0.1-21.9c0-19.6,0.1-39.1-0.1-58.7c0-4.2,2.3-6.4,6.9-6.4c65.1,0.1,130.2,0.1,195.3,0.1
				c5.6,0,6.9,1.2,6.9,6.3c0,8.6,0,17.2,0,25.8c0,16.3,0,32.6,0,48.9c0,2.4-0.1,4.8,0,7.2c0.2,3.6-2.3,4.4-5.3,4.8
				c-0.7,0.1-1.3,0-2,0c-62,0-124.1,0-186.1,0C1031.7-1922.8,1028.9-1922.9,1026.2-1922.8z"/>
			<path class="st1" d="M855-2299.7c16.3,0,32.3,0.1,48.2,0c5.3,0,10.9-3.3,10.8-7.6c-0.1-34.6-0.1-69.1-0.1-103.7
				c0-3.9-2.5-6.1-6.7-6.1c-61.4,0-122.8,0-184.2,0c-4.6,0-6.1,1.4-6.1,5.8c0,35.1,0,70.1-0.1,105.2c0,2.6,1.1,4.2,3.6,4.9
				c2.1,0.7,4.3,1.5,6.5,1.5C769.5-2299.7,812.1-2299.7,855-2299.7L855-2299.7z M737-2312.5c-5.2,0-7.2-1.6-7.2-6.3
				c-0.1-27.2-0.1-54.5,0-81.7c0-3.3,2.7-5.6,6.4-5.6c15.1,0,30.4-1,45.4,0.2c37.5,2.8,75.1,0.4,112.6,1.3c5.1,0.1,5.4,0.3,5.4,4.9
				c0,27.2,0,54.5,0,81.7c0,4.7-0.9,5.5-6,5.5c-23.7,0-47.3,0-71,0C793.6-2312.5,765.3-2312.5,737-2312.5z"/>
			<path class="st1" d="M1101.1-1933.2c-6.9,0-13.4,0.3-19.9-0.1c-6-0.4-7.9-2.4-7.1-6.7c0.7-4.1,4.9-3.3,7.8-4.3
				c0.7-0.3,1.6,0,2.4,0c28,0,56.1,0,84.1,0c5.3,0,7.8,1.3,7.7,4.3c-0.1,3.8-2.6,6.8-8.3,6.8
				C1145.6-1933.1,1123.6-1933.2,1101.1-1933.2z"/>
			<path class="st1" d="M1027-1958.5c-1.1-3.1,0.4-5.7,4.1-5.9c5.7-0.3,11.4-0.4,17.1,0.1c1.8,0.2,4.8,2.4,4.8,3.7
				c0,2-1.7,5-3.5,5.8c-6.4,2.8-13.2,2.3-19.7,0C1028.6-1955.3,1027.9-1957,1027-1958.5z"/>
			<path class="st1" d="M1182.5-1964.4c2.9,0,5.6-0.4,7.2,2.2c2.7,4.2,0.1,8.7-5.5,8.9c-5.1,0.2-10.2-0.2-15.2-0.7
				c-3-0.3-4.1-2.6-4.1-5.5c0-3.6,2.9-4.5,5.6-4.8C1174.3-1964.7,1178.2-1964.4,1182.5-1964.4z"/>
			<path class="st1" d="M1083-1957.2c-3-2.5-4.5-5.1-2.6-8.7c2.1-4,5.2-4.9,10.8-3c3.1,1.1,4.5,4.2,3.5,7.9
				C1093.2-1955.8,1088.4-1954.1,1083-1957.2z"/>
			<path class="st1" d="M1130.8-1973.5c-4.5-4.8-4.7-9.5-0.1-11.9c2-1,5.4-1,7.6-0.1c3.7,1.4,4.3,5,3.3,8.1
				c-0.8,2.4-2.6,4.7-6.3,4.2C1134-1973.5,1132.5-1973.4,1130.8-1973.5z"/>
			<path class="st1" d="M1143.2-2005.5c4.8-2.6,10.4-1.6,11.6,4.5c0.6,2.9-1.9,7-5.1,7.6c-4.1,0.8-8.2-1.2-8.6-4.6
				C1140.8-2000.5,1140.4-2003.3,1143.2-2005.5z"/>
			<path class="st1" d="M1131.4-2000.1c-1.1,3.3-1.4,6.6-6,6.7c-3,0.1-5.5-0.3-6.7-3.1c-1.6-3.6-0.9-7.5,1.8-9.4
				C1125.4-2009.4,1130.3-2007.5,1131.4-2000.1z"/>
			<path class="st1" d="M1153-1973.4c-5.3-2.8-6.4-7.4-3.1-10.9c2.5-2.7,5.2-3.1,8.8-1.4c3.1,1.5,4.2,3.9,3.8,6.6
				c-0.7,4.3-2.7,5.6-7.1,5.6C1154.7-1973.4,1154-1973.4,1153-1973.4z"/>
			<path class="st1" d="M1170.5-1993.4c-4.3-0.2-7.3-3.4-7.2-7.2c0.1-3,3.5-5.9,6.6-6.3c3.9-0.4,7.8,3.6,7.8,6.3
				C1177.8-1996.6,1175.2-1993.7,1170.5-1993.4z"/>
			<path class="st1" d="M1125.8-1965.9c3.9-0.4,6.7,0.8,7.7,3.9c0.9,2.7,1.1,6-1.8,7.9c-2.4,1.6-5.1,2.3-8.2,0.8
				c-3.6-1.8-4-4.9-3.1-7.7C1121.1-1962.9,1123.7-1964.3,1125.8-1965.9z"/>
			<path class="st1" d="M1038.7-2004.4c3.4,5.2,0.6,10.7-5.3,11c-3.7,0.2-5.3-1.9-6.8-4.4c-1.5-2.7-0.7-5.5,1.4-7.2
				c2.2-1.7,5.2-3,8.4-1.1C1037.1-2005.6,1037.8-2005.1,1038.7-2004.4z"/>
			<path class="st1" d="M1179.1-1973.5c-1.3,0.2-2.3,0.2-3.4,0.2c-4.9,0-6.8-1.1-7.5-5.7c-0.6-3.7,2.4-5.5,5.7-7
				c3.5-1.7,5.3,0.3,7.2,2.2c2.2,2.3,1.8,6.3-0.4,8.8C1180.3-1974.6,1179.8-1974.2,1179.1-1973.5z"/>
			<path class="st1" d="M1039.5-1976.5c-1.4,3.5-4.4,3.1-7.2,3.2c-2.9,0-5.2-1.4-5.7-3.8c-0.4-2,0.2-4.5,1.2-6.2
				c1.9-3.1,5.1-4.2,8.8-2.6C1039.8-1984.7,1040.8-1981.6,1039.5-1976.5z"/>
			<path class="st1" d="M1107.5-1979.3c1.3-6.2,5.2-8.6,9.8-6.9c3.8,1.4,4.2,4.8,4.1,7.4c-0.1,4.3-2.4,5.4-7.9,5.4
				C1109.4-1973.3,1108.1-1975.7,1107.5-1979.3z"/>
			<path class="st1" d="M1063.6-2001.6c0.4,3.9-1.3,6.3-4.7,7.7c-2.9,1.2-5.4,0.4-7.6-1.7c-2.3-2.3-2.4-5.3-1.1-7.7
				c0.9-1.6,3.3-2.9,5.3-3.4c2.7-0.7,5.2,0.3,6.5,3.1C1062.4-2003,1063.1-2002.5,1063.6-2001.6z"/>
			<path class="st1" d="M1048.3-1976.1c-2.1-6.6,0.2-10.6,5.8-10.6c4,0,6.4,2.7,6.4,7.1c0,4.7-1.5,6.2-6,6.2
				C1052-1973.4,1049.2-1972.7,1048.3-1976.1z"/>
			<path class="st1" d="M1105.7-2005.9c3.1,2.6,3.2,5.6,2.1,8.7c-1.2,3.4-4.8,4.7-8.3,3.4c-3.9-1.5-5.7-5.2-4.3-8.6
				C1097.2-2007.2,1100.9-2007.7,1105.7-2005.9z"/>
			<path class="st1" d="M1193-1973.5c-3.8-2-5.3-6.3-3.4-9.1c2.9-4.2,6.3-5.4,9.6-3c3.8,2.7,5.1,7.5,1.9,10.5
				C1199.5-1973.6,1195.9-1973.9,1193-1973.5z"/>
			<path class="st1" d="M1064.4-1934.7c-3.4,3.4-6.1,3.8-9,1.6c-3-2.3-4.1-7.2-2.2-10c1.3-1.9,5.9-2.8,8.8-1.6
				c3,1.1,4.3,3.3,3.9,6.2C1065.8-1937.3,1065-1936.2,1064.4-1934.7z"/>
			<path class="st1" d="M1078.2-1974.7c-5.7,2.6-8.8,1.3-10.9-3.8c-1.5-3.5,1.3-5,3.2-6.9c2.3-2.3,5.1-1.5,7.2-0.4
				c2.3,1.3,4.2,3.5,3.4,6.3C1080.6-1977.7,1079.3-1976.3,1078.2-1974.7z"/>
			<path class="st1" d="M1194.4-1993.4c-5,0-8.5-3.5-7.9-7.6c0.6-4,3.6-6.1,8.2-5.8c3.7,0.2,4.6,3,5.3,5.5
				C1200.9-1997.3,1199.4-1995.2,1194.4-1993.4z"/>
			<path class="st1" d="M1223.2-1978.6c-1.5,5-5.2,5.9-9.6,5.2c-0.9-0.1-1.9-0.7-2.5-1.4c-1.5-1.7-1.1-7.9,0.4-9.5
				c1.8-1.9,4.1-3.2,6.8-2.2C1221.5-1985.2,1223.6-1982.7,1223.2-1978.6z"/>
			<path class="st1" d="M1199.8-1955.3c-2.3-4.4-2.1-7.6,1.7-9.1c2.4-1,6.2-0.7,8.6,0.4c3.7,1.7,2.7,6.6,0.7,9.1
				C1208-1951.5,1203.9-1951.7,1199.8-1955.3z"/>
			<path class="st1" d="M1208.2-1944.9c2.8,0.2,5.8,0.1,7.8,1.2c2.7,1.5,3.1,4.3,1.6,7.2c-1.6,3.1-4.2,4.5-7.7,4
				c-3.3-0.5-5.3-2.9-5.8-5.7C1203.7-1941,1205.2-1943.3,1208.2-1944.9z"/>
			<path class="st1" d="M1153.8-1956.3c-2.3,2.9-4.9,4.7-8.7,3.4c-3.7-1.3-5.5-5.6-4-9.5c0.8-2.1,6.7-3.8,9.8-2.8
				C1154.2-1964,1155.4-1960.5,1153.8-1956.3z"/>
			<path class="st1" d="M1095.5-1973.4c-6.3,0-9.9-5.3-7.1-10.1c1.4-2.5,5.3-3.9,7.9-2.9c3.7,1.4,6.1,5.4,4.4,8.3
				C1099.7-1976.2,1097.6-1974.9,1095.5-1973.4z"/>
			<path class="st1" d="M1086-2000.9c-0.4,4-2.1,6.8-6.1,7.4c-2.9,0.4-5.6-0.2-6.7-3.4c-1.6-4.5-0.8-7.2,3-9.2
				c3-1.6,5.6-0.6,7.7,1.5C1084.9-2003.6,1085.3-2002.3,1086-2000.9z"/>
			<path class="st1" d="M1101.1-1963.7c3.3-0.5,6.9-1.4,9.8-0.5c3,0.9,2.5,4.6,2,7.1c-0.5,3-2.8,4.3-6.2,3.9
				c-2.4-0.3-5.1,0.7-6.5-2.1C1099-1958.1,1099-1960.8,1101.1-1963.7z"/>
			<path class="st1" d="M1189.1-1931.9c-4.5-1-5.5-4.3-5.6-7.5c0-1.6,1.4-4.1,3-4.8c2.1-0.9,5.2-1.1,7.2-0.3c2.9,1.2,4.1,4.3,3,7
				c-0.7,1.9-2.9,3.4-4.6,4.9C1191.4-1932,1190.2-1932,1189.1-1931.9z"/>
			<path class="st1" d="M1033.1-1943.8c3.4-2.1,7.3-1.7,9.9,0.7c2.7,2.4,2.5,5,0.6,7.8c-1.3,1.9-6.5,3.7-8.9,2.8
				c-1.1-0.4-2.8-1.5-2.8-2.4C1032-1937.8,1032.6-1940.7,1033.1-1943.8z"/>
			<path class="st1" d="M1220.8-1995.7c-2.5,2.5-5.4,3.2-8.4,1.4c-2.5-1.6-3.3-6.1-1.9-9.3c1.3-2.9,3.8-3.6,6.8-3.2
				C1221.3-2006.3,1224.7-2001.8,1220.8-1995.7z"/>
			<path class="st1" d="M1059.1-1955.7c-0.1-2.8-2.1-5.6,1-8.1c3-2.3,6-1.9,9-0.6c2.9,1.2,3,3.5,2,6.2c-0.7,1.8,0.1,4.6-2.8,4.8
				C1065.1-1953.2,1061.5-1952.2,1059.1-1955.7z"/>
			<path class="st1" d="M887.1-2394.7c0,0-94.7,0-141.7,0c-4.5,0-6.9,2.1-6.9,6.3c0,20.3,0,40.6,0,60.9c0,2.8,1.3,4.8,4,5.6
				c3.4,1,7,2.2,10.5,2.2c30.4,0.2,60.8,0.1,91.2,0.1c11.7,0,23.4,0.3,35.1-0.1c6.7-0.2,12.6-2.2,12.4-11.4
				c-0.3-18.9-0.1-37.9-0.1-56.8c0-3.2-1.1-5.5-4.8-6.8H887.1z M872.9-2382.3c4.8,0,5.2,0.4,5.2,4.8c0,13.3,0,26.5,0,39.8
				c0,4.3-1,5.2-5.5,5.2c-38.3,0-76.6-0.1-114.8,0.1c-4.5,0-6.4-2.6-6.4-6c-0.1-12.9-0.1-25.8,0-38.7c0-3.7,1.7-5.2,5.6-5.2
				c10.2,0,20.5,0,30.7,0C816.6-2382.3,844.7-2382.3,872.9-2382.3z"/>
		</g>
		<g>
			<path class="st1" d="M415.6-1918.6c-5.7-4.3-4.9-9.9-3.3-15.2c4.5-15.2,9.5-30.3,14.3-45.4c7.2-22.9,14.3-45.7,21.6-68.6
				c2.2-7,5.8-8.9,13.2-7.6c2.5,0.4,4.9,4.3,5.2,7.7c0.7,9.1-3.3,17.2-5.9,25.6c-4.9,16.2-9.9,32.3-14.9,48.5
				c-3.4,10.8-6.9,21.6-10.4,32.4c-1.8,5.6-3.6,11.2-5.6,16.8c-0.7,1.9-2.1,3.7-3.1,5.7C423-1918.6,419.4-1918.6,415.6-1918.6z"/>
			<path class="st1" d="M544.6-1983.4c-1.2,0.9-2.5,1.4-3.4,2.3c-15.3,14.2-30.5,28.4-45.7,42.5c-4.2,3.9-6,3.9-10.2,0.1
				c-1.1-1.1-2.5-2-3.3-3.2c-3.7-5-3.6-7.9,0.1-11.2c11.1-10.1,22-20.4,33-30.7c3.3-3,3.3-4.3,0-7.4c-10.3-9.7-20.5-19.5-31.1-28.8
				c-5.8-5.1-5.3-11-1.8-14.1c4.4-4,11.4-3.8,16.3,0.8c7.6,7.2,15,14.5,22.6,21.7c7.6,7.2,15.4,14.4,23.3,21.6
				C544.6-1987.8,544.6-1985.7,544.6-1983.4z"/>
			<path class="st1" d="M303.9-2342.6c-3.8-5-7-10.1-11-14.6c-4.9-5.4-11.4-8.9-18.3-11.6c-3.5-1.4-5.5-3.8-6.3-7
				c-4.2-17.4-16-29.2-32.1-37.6c-11.1-5.8-23.4-7.9-36-6.6c-7.1,0.7-14.6,1.9-21,4.7c-13.6,5.9-24.1,15.4-31.4,27.8
				c-1.3,2.2-2.7,3.2-5.6,3.1c-4.5-0.3-9,0.1-13.6-0.1c-14.5-0.5-27.6,3.6-39.2,11.3c-10.4,6.8-18,15.8-22.5,27.1
				c-3.6,9.1-3.6,18.3-2.6,27.5c0.7,6.6,3.1,13.4,6.4,19.3c5.3,9.5,13.1,17.2,23.2,22.8c8.9,5,18.5,7.9,28.5,9.3
				c8,1.1,16.2,0.9,24.4,0.9c32.9-0.1,65.7-0.5,98.6-0.7c12.7-0.1,24.7-2.5,35.8-8.2c10.9-5.7,18.7-14.2,23.5-24.9
				c2-4.3,3.1-9,4-13.7c0.7-3.5,0.9-7.2,0.3-10.6C307.9-2330.4,305.8-2336.4,303.9-2342.6 M98.1-2289.5
				c-8.7-5.8-15.9-13.6-18.7-23.8c-3.2-11.3-3-22.7,3.2-33.1c7.4-12.6,18.3-21.9,34-24.5c11.4-1.9,23-2.1,33.9,2.7
				c3,1.3,4.5,0.6,5.4-2.6c2.4-8.7,6.6-16.7,13.7-22.9c6.7-6,14.3-11.4,23.7-12.8c15.4-2.3,30.4-1.2,43.3,8.6
				c11.6,8.8,18.8,19.7,19.9,33.9c0.1,1.5,2,3.8,3.4,4.1c15.1,3,25.2,11.9,31.9,24.2c2.6,4.8,4.6,10.8,4.1,16.1
				c-0.9,8.7-4.2,17-10.5,24.1c-7.3,8.3-16.2,13.2-27.7,14.7c-21.1,2.8-42.4,0.9-63.5,1.3c-19.3,0.4-38.5,0.1-57.8,0.1
				C121.9-2279.3,108.9-2282.2,98.1-2289.5z"/>
			<path class="st1" d="M371.4-2025.8c4.7-3.9,8.1-8.8,14.4-10.5c4.8-1.3,9.6,0.4,11.3,3c3.3,4.9,2.9,8.3-1.2,12.1
				c-10.2,9.6-20.5,19.1-30.7,28.7c-1.1,1-1.8,2.3-2.9,3.3c-2.1,1.9-1.2,3.3,0.5,4.9c10.8,10,21.6,20.1,32.4,30.2
				c4.4,4.1,5,6.1,3.1,10.2c-2,4.2-7.4,7.7-11.7,7.4c-1.2-0.1-2.5-0.6-3.3-1.4c-15.5-14.3-31-28.6-46.2-43.1
				c-4.4-4.2-3.8-8-0.1-11.4C348.6-2003.3,359.8-2014.5,371.4-2025.8z"/>
		</g>
	</g>
</pattern>
<rect x="-119" class="st2" width="8784" height="5950"/>
</svg>
